HIERARCHY
ROOT hip
{
	OFFSET 0.000000 0.000000 0.000000
	CHANNELS 6 Xposition Yposition Zposition Xrotation Zrotation Yrotation 
	JOINT abdomen
	{
		OFFSET 0.000000 3.422050 0.000000
		CHANNELS 3 Xrotation Zrotation Yrotation 
		JOINT chest
		{
			OFFSET 0.000000 8.486693 -0.684411
			CHANNELS 3 Xrotation Zrotation Yrotation 
			JOINT neck
			{
				OFFSET 0.000000 10.266162 -0.273764
				CHANNELS 3 Xrotation Zrotation Yrotation 
				JOINT head
				{
					OFFSET 0.000000 3.148285 0.000000
					CHANNELS 3 Xrotation Zrotation Yrotation 
					End Site
					{
						OFFSET 0.000000 3.148289 0.000000
					}
				}
			}
			JOINT lCollar
			{
				OFFSET 3.422053 6.707223 -0.821293
				CHANNELS 3 Yrotation Zrotation Xrotation 
				JOINT lShldr
				{
					OFFSET 3.285171 0.000000 0.000000
					CHANNELS 3 Zrotation Yrotation Xrotation 
					JOINT lForeArm
					{
						OFFSET 10.129278 0.000000 0.000000
						CHANNELS 3 Yrotation Zrotation Xrotation 
						JOINT lHand
						{
							OFFSET 8.486692 0.000000 0.000000
							CHANNELS 3 Zrotation Yrotation Xrotation 
							End Site
							{
								OFFSET 4.106464 0.000000 0.000000
							}
						}
					}
				}
			}
			JOINT rCollar
			{
				OFFSET -3.558935 6.707223 -0.821293
				CHANNELS 3 Yrotation Zrotation Xrotation 
				JOINT rShldr
				{
					OFFSET -3.148289 0.000000 0.000000
					CHANNELS 3 Zrotation Yrotation Xrotation 
					JOINT rForeArm
					{
						OFFSET -10.266159 0.000000 0.000000
						CHANNELS 3 Yrotation Zrotation Xrotation 
						JOINT rHand
						{
							OFFSET -8.349810 0.000000 0.000000
							CHANNELS 3 Zrotation Yrotation Xrotation 
							End Site
							{
								OFFSET -4.106464 0.000000 0.000000
							}
						}
					}
				}
			}
		}
	}
	JOINT lThigh
	{
		OFFSET 5.338403 -1.642589 1.368821
		CHANNELS 3 Xrotation Zrotation Yrotation 
		JOINT lShin
		{
			OFFSET -2.053232 -20.121670 0.000000
			CHANNELS 3 Xrotation Zrotation Yrotation 
			JOINT lFoot
			{
				OFFSET 0.000000 -19.300380 -1.231939
				CHANNELS 3 Xrotation Yrotation Zrotation 
				End Site
				{
					OFFSET 0.000000 -2.463878 4.653993
				}
			}
		}
	}
	JOINT rThigh
	{
		OFFSET -5.338403 -1.642589 1.368821
		CHANNELS 3 Xrotation Zrotation Yrotation 
		JOINT rShin
		{
			OFFSET 2.053232 -20.121670 0.000000
			CHANNELS 3 Xrotation Zrotation Yrotation 
			JOINT rFoot
			{
				OFFSET 0.000000 -19.300380 -1.231939
				CHANNELS 3 Xrotation Yrotation Zrotation 
				End Site
				{
					OFFSET 0.000000 -2.463878 4.653993
				}
			}
		}
	}
}
MOTION
Frames: 10
Frame Time: 0.099977
0.000000 43.528500 0.000000 0.000000 0.000000 0.000000 0.000000 0.000000 0.000000 0.000000 0.000000 0.000000 0.000000 0.000000 0.000000 0.000000 0.000000 0.000000 0.000000 0.000000 0.000000 0.000000 0.000000 0.000000 0.000000 0.000000 0.000000 0.000000 0.000000 0.000000 0.000000 0.000000 0.000000 0.000000 0.000000 0.000000 0.000000 0.000000 0.000000 0.000000 0.000000 0.000000 0.000000 0.000000 0.000000 0.000000 0.000000 0.000000 0.000000 0.000000 0.000000 0.000000 0.000000 0.000000 0.000000 0.000000 0.000000 0.000000 0.000000 0.000000 
-12.138111 13.620281 -0.561709 0.000000 0.000000 0.000000 78.028107 0.016838 -0.029115 37.517429 0.220452 -0.067319 9.315100 7.158783 1.672036 -30.002340 0.000000 0.000000 11.569462 41.577183 -113.065201 -20.545073 -38.372169 6.655530 -16.007387 -5.957837 -0.458319 35.990700 1.359537 -16.942810 -7.014700 -20.462601 -57.344799 26.861231 41.338680 10.733792 15.923765 12.548139 -1.635829 -37.049709 -34.152454 -7.003920 -51.056747 6.089967 0.001440 145.190674 5.509057 -0.724722 56.105225 8.187260 3.213877 -51.053509 -6.167833 -0.026519 145.204590 -5.603344 0.727910 56.670399 -8.210264 -3.157530 
-12.138111 13.620281 -0.561709 0.000000 0.000000 0.000000 78.028107 0.016838 -0.029115 37.517433 0.220452 -0.067319 7.745593 7.158652 1.672124 -30.363186 0.588434 0.039291 11.735695 41.398548 -113.179436 -20.097712 -38.195290 6.376530 -16.007387 -5.957837 -0.458319 35.990700 1.359537 -16.942812 -6.408511 -20.581518 -57.001606 26.616796 41.030910 10.572234 15.700532 12.423206 -1.588330 -37.049709 -34.152454 -7.003920 -51.056747 6.089967 0.001440 145.190674 5.509057 -0.724722 56.105228 8.187261 3.213877 -51.053513 -6.167833 -0.026519 145.204590 -5.603344 0.727910 56.670399 -8.210265 -3.157531 
-12.138111 13.620281 -0.561709 0.000000 0.000000 0.000000 78.028107 0.016838 -0.029115 37.517429 0.220452 -0.067319 6.170047 7.158525 1.672216 -30.723936 1.177534 0.074906 11.901024 41.219635 -113.292679 -19.652340 -38.016628 6.099849 -16.007387 -5.957837 -0.458319 35.990700 1.359537 -16.942810 -5.800489 -20.697136 -56.656464 26.374563 40.722519 10.413104 15.477473 12.298076 -1.541343 -37.049713 -34.152458 -7.003921 -51.056747 6.089967 0.001440 145.190674 5.509057 -0.724722 56.105225 8.187260 3.213877 -51.053509 -6.167833 -0.026519 145.204590 -5.603345 0.727910 56.670406 -8.210265 -3.157530 
-12.138111 13.620281 -0.561709 0.000000 0.000000 0.000000 78.028107 0.016838 -0.029115 37.517429 0.220452 -0.067319 4.589025 7.158397 1.672311 -31.084669 1.767235 0.106839 12.065448 41.040459 -113.404930 -19.208965 -37.836205 5.825495 -16.007387 -5.957837 -0.458319 35.990700 1.359537 -16.942810 -5.190695 -20.809429 -56.309452 26.134480 40.413517 10.256365 15.254589 12.172745 -1.494870 -37.049702 -34.152451 -7.003922 -51.056744 6.089967 0.001440 145.190674 5.509057 -0.724722 56.105221 8.187259 3.213877 -51.053505 -6.167833 -0.026519 145.204590 -5.603344 0.727910 56.670399 -8.210263 -3.157530 
-12.138111 13.620281 -0.561709 0.000000 0.000000 0.000000 78.028107 0.016838 -0.029115 37.517429 0.220452 -0.067319 3.003109 7.158274 1.672411 -31.445414 2.357471 0.135082 12.228984 40.861023 -113.516228 -18.767603 -37.654057 5.553480 -16.007387 -5.957837 -0.458319 35.990700 1.359536 -16.942808 -4.579186 -20.918348 -55.960602 25.896519 40.103909 10.101983 15.031870 12.047215 -1.448910 -37.049706 -34.152454 -7.003919 -51.056747 6.089967 0.001440 145.190674 5.509057 -0.724722 56.105221 8.187260 3.213877 -51.053509 -6.167833 -0.026519 145.204590 -5.603344 0.727910 56.670395 -8.210264 -3.157530 
-12.138111 13.620281 -0.561709 0.000000 0.000000 0.000000 78.028107 0.016838 -0.029115 37.517429 0.220452 -0.067319 1.412880 7.158153 1.672514 -31.806217 2.948176 0.159629 12.391634 40.681320 -113.626541 -18.328253 -37.470165 5.283807 -16.007385 -5.957837 -0.458319 35.990700 1.359537 -16.942810 -3.966021 -21.023874 -55.609993 25.660658 39.793743 9.949933 14.809331 11.921495 -1.403463 -37.049709 -34.152454 -7.003920 -51.056747 6.089967 0.001440 145.190674 5.509057 -0.724722 56.105225 8.187260 3.213877 -51.053509 -6.167833 -0.026519 145.204590 -5.603344 0.727910 56.670399 -8.210264 -3.157530 
-12.138111 13.620281 -0.561709 0.000000 0.000000 0.000000 78.028107 0.016838 -0.029115 37.517429 0.220452 -0.067319 -0.181061 7.158034 1.672622 -32.167137 3.539284 0.180471 12.553418 40.501381 -113.735939 -17.890932 -37.284607 5.016489 -16.007387 -5.957837 -0.458319 35.990700 1.359537 -16.942812 -3.351259 -21.125965 -55.257656 25.426844 39.482990 9.800172 14.586966 11.795588 -1.358531 -37.049709 -34.152454 -7.003920 -51.056747 6.089967 0.001440 145.190674 5.509057 -0.724722 56.105225 8.187260 3.213877 -51.053509 -6.167833 -0.026519 145.204590 -5.603344 0.727910 56.670399 -8.210264 -3.157530 
-12.138111 13.620281 -0.561709 0.000000 0.000000 0.000000 78.028107 0.016838 -0.029115 37.517433 0.220452 -0.067319 -1.778111 7.157920 1.672732 -32.528233 4.130728 0.197600 12.714324 40.321163 -113.844345 -17.455639 -37.097370 4.751527 -16.007387 -5.957837 -0.458319 35.990704 1.359537 -16.942810 -2.734964 -21.224588 -54.903667 25.195063 39.171711 9.652677 14.364774 11.669492 -1.314113 -37.049709 -34.152454 -7.003920 -51.056751 6.089968 0.001439 145.190689 5.509057 -0.724722 56.105225 8.187260 3.213877 -51.053513 -6.167833 -0.026519 145.204605 -5.603345 0.727910 56.670399 -8.210264 -3.157530 
-12.138111 13.620281 -0.561709 0.000000 0.000000 0.000000 78.028107 0.016838 -0.029115 37.517422 0.220452 -0.067319 -3.377656 7.157806 1.672846 -32.889538 4.722442 0.211006 12.874377 40.140717 -113.951828 -17.022381 -36.908482 4.488930 -16.007387 -5.957836 -0.458319 35.990700 1.359537 -16.942810 -2.117198 -21.319714 -54.548084 24.965265 38.859886 9.507410 14.142754 11.543214 -1.270209 -37.049709 -34.152454 -7.003920 -51.056740 6.089967 0.001440 145.190674 5.509057 -0.724722 56.105221 8.187260 3.213878 -51.053501 -6.167832 -0.026519 145.204590 -5.603344 0.727910 56.670399 -8.210264 -3.157530 
